<?xml version="1.0" encoding="utf-8"?>
<!-- Generator: Adobe Illustrator 19.2.1, SVG Export Plug-In . SVG Version: 6.00 Build 0)  -->
<svg version="1.1" id="Layer_1" xmlns="http://www.w3.org/2000/svg" xmlns:xlink="http://www.w3.org/1999/xlink" x="0px" y="0px"
	 viewBox="0 0 1266.1 211.3" style="enable-background:new 0 0 1266.1 211.3;" xml:space="preserve">
<style type="text/css">
	.st0{fill:#2597CE;}
	.st1{clip-path:url(#SVGID_2_);fill:#1389C9;}
	.st2{clip-path:url(#SVGID_4_);fill:#0082C5;}
	.st3{fill:#FFF1E5;}
	.st4{clip-path:url(#SVGID_6_);fill:#DED3CD;}
	.st5{clip-path:url(#SVGID_8_);fill:#DED3CD;}
	.st6{clip-path:url(#SVGID_10_);fill:#DED3CD;}
	.st7{clip-path:url(#SVGID_12_);fill:#DED3CD;}
	.st8{fill:#59515C;}
	.st9{fill:#FFFFFF;}
</style>
<g id="Layer_2">
	<g>
		<circle class="st0" cx="105.7" cy="105.7" r="103.5"/>
		<g>
			<g>
				<defs>
					<circle id="SVGID_1_" cx="105.7" cy="105.7" r="103.5"/>
				</defs>
				<clipPath id="SVGID_2_">
					<use xlink:href="#SVGID_1_"  style="overflow:visible;"/>
				</clipPath>
				<polygon class="st1" points="166.9,46 209.1,88.2 209.1,209.1 88.4,209.1 45.5,165.9 58.8,113.3 45.7,100.2 101.5,46 
					110.2,54.7 				"/>
			</g>
		</g>
		<g>
			<g>
				<defs>
					<circle id="SVGID_3_" cx="105.7" cy="105.7" r="103.5"/>
				</defs>
				<clipPath id="SVGID_4_">
					<use xlink:href="#SVGID_3_"  style="overflow:visible;"/>
				</clipPath>
				<polygon class="st2" points="45.7,101.3 147.6,203.1 180.2,183.5 203.3,147.7 101.4,45.9 				"/>
			</g>
		</g>
		<path class="st3" d="M102.4,95.5c0,3.8-3.1,7-7,7H49.6c-3.8,0-7-3.1-7-7V49.6c0-3.8,3.1-7,7-7h45.9c3.8,0,7,3.1,7,7V95.5z"/>
		<path class="st3" d="M168.7,95.5c0,3.8-3.1,7-7,7h-45.9c-3.8,0-7-3.1-7-7V49.6c0-3.8,3.1-7,7-7h45.9c3.8,0,7,3.1,7,7L168.7,95.5
			L168.7,95.5z"/>
		<path class="st3" d="M102.4,161.7c0,3.8-3.1,7-7,7H49.6c-3.8,0-7-3.1-7-7v-45.9c0-3.8,3.1-7,7-7h45.9c3.8,0,7,3.1,7,7V161.7z"/>
		<path class="st3" d="M168.7,161.7c0,3.8-3.1,7-7,7h-45.9c-3.8,0-7-3.1-7-7v-45.9c0-3.8,3.1-7,7-7h45.9c3.8,0,7,3.1,7,7
			L168.7,161.7L168.7,161.7z"/>
		<g>
			<g>
				<defs>
					<path id="SVGID_5_" d="M168.7,95.5c0,3.8-3.1,7-7,7h-45.9c-3.8,0-7-3.1-7-7V49.6c0-3.8,3.1-7,7-7h45.9c3.8,0,7,3.1,7,7
						L168.7,95.5L168.7,95.5z"/>
				</defs>
				<clipPath id="SVGID_6_">
					<use xlink:href="#SVGID_5_"  style="overflow:visible;"/>
				</clipPath>
				<polygon class="st4" points="151.6,70.7 124.9,76.1 152.7,104 168.7,104 168.7,87.7 				"/>
			</g>
		</g>
		<g>
			<g>
				<defs>
					<path id="SVGID_7_" d="M168.7,161.7c0,3.8-3.1,7-7,7h-45.9c-3.8,0-7-3.1-7-7v-45.9c0-3.8,3.1-7,7-7h45.9c3.8,0,7,3.1,7,7
						L168.7,161.7L168.7,161.7z"/>
				</defs>
				<clipPath id="SVGID_8_">
					<use xlink:href="#SVGID_7_"  style="overflow:visible;"/>
				</clipPath>
				<polygon class="st5" points="151.9,128.7 130,130.3 124.6,133.3 133.6,142.3 124.9,148.3 145.2,168.7 168.7,168.7 168.5,145.4 
									"/>
			</g>
		</g>
		<g>
			<g>
				<defs>
					<path id="SVGID_9_" d="M102.4,161.7c0,3.8-3.1,7-7,7H49.6c-3.8,0-7-3.1-7-7v-45.9c0-3.8,3.1-7,7-7h45.9c3.8,0,7,3.1,7,7V161.7z
						"/>
				</defs>
				<clipPath id="SVGID_10_">
					<use xlink:href="#SVGID_9_"  style="overflow:visible;"/>
				</clipPath>
				<polygon class="st6" points="82.7,128.9 63.2,148.4 83.4,168.7 104,168.7 104,148.4 83.4,127.8 				"/>
			</g>
		</g>
		<g>
			<g>
				<defs>
					<path id="SVGID_11_" d="M102.4,95.5c0,3.8-3.1,7-7,7H49.6c-3.8,0-7-3.1-7-7V49.6c0-3.8,3.1-7,7-7h45.9c3.8,0,7,3.1,7,7V95.5z"
						/>
				</defs>
				<clipPath id="SVGID_12_">
					<use xlink:href="#SVGID_11_"  style="overflow:visible;"/>
				</clipPath>
				<polygon class="st7" points="73.5,73.2 59.9,76 87.9,104 104,104 104,87.8 76.2,60.1 				"/>
			</g>
		</g>
		<g>
			<g>
				<g>
					<path class="st8" d="M83.6,69.2h-6.4v-6.4c0-2.2-1.8-4-4-4l0,0c-2.2,0-4,1.8-4,4v6.4h-6.4c-2.2,0-4,1.8-4,4c0,2.2,1.8,4,4,4
						h6.4v6.4c0,2.2,1.8,4,4,4l0,0c2.2,0,4-1.8,4-4v-6.4h6.4c2.2,0,4-1.8,4-4S85.9,69.2,83.6,69.2z"/>
				</g>
			</g>
			<g>
				<path class="st8" d="M148.5,77.2h-20.8c-2.2,0-4-1.8-4-4l0,0c0-2.2,1.8-4,4-4h20.8c2.2,0,4,1.8,4,4l0,0
					C152.5,75.4,150.7,77.2,148.5,77.2z"/>
			</g>
			<g>
				<path class="st8" d="M83.4,133.5l-14.7,14.7c-1.6,1.6-4.1,1.6-5.7,0l0,0c-1.6-1.6-1.6-4.1,0-5.7l14.7-14.7
					c1.6-1.6,4.1-1.6,5.7,0l0,0C85,129.4,85,132,83.4,133.5z"/>
				<path class="st8" d="M68.7,127.8l14.7,14.7c1.6,1.6,1.6,4.1,0,5.7l0,0c-1.6,1.6-4.1,1.6-5.7,0L63,133.5c-1.6-1.6-1.6-4.1,0-5.7
					l0,0C64.6,126.3,67.1,126.3,68.7,127.8z"/>
			</g>
			<g>
				<g>
					<path class="st8" d="M148.5,141.4h-20.8c-2.2,0-4,1.8-4,4c0,2.2,1.8,4,4,4h20.8c2.2,0,4-1.8,4-4
						C152.5,143.2,150.7,141.4,148.5,141.4z M127.7,134.7h20.8c2.2,0,4-1.8,4-4c0-2.2-1.8-4-4-4h-20.8c-2.2,0-4,1.8-4,4
						C123.6,132.9,125.4,134.7,127.7,134.7z"/>
				</g>
			</g>
		</g>
	</g>
</g>
<g>
	<path class="st9" d="M373.6,154.3l-6.1-65.1l-28.6,65.1h-6l-28.3-64.2l-6.7,64.2H291l8.2-75.5h7.6l29.1,65.3h0.3l28.9-65.3h7.7
		l7.4,75.5H373.6z"/>
	<path class="st9" d="M461.2,116c0,23.3-11.4,39.4-33.7,39.4c-22.2,0-33.6-16.1-33.6-39.4c0-23,11.4-38.5,33.6-38.5
		C449.8,77.6,461.2,93.1,461.2,116z M401.3,116.2c0,20.1,8.4,33.1,26,33.1c18.1,0,26.6-13.1,26.6-33.1c0-20.2-8.4-32.5-26.6-32.5
		C409.7,83.7,401.3,95.9,401.3,116.2z"/>
	<path class="st9" d="M540.3,78.7v75.5h-5.8l-47.9-63.1h-0.3v63.1h-6.6V78.7h5.8l48,63.5h0.3V78.7H540.3z"/>
	<path class="st9" d="M563.3,154.3V78.7h6.9v75.5H563.3z"/>
	<path class="st9" d="M633.8,85.1h-23.3v69.2h-7.5V85.1h-23v-6.4h53.8V85.1z"/>
	<path class="st9" d="M705.1,116c0,23.3-11.4,39.4-33.7,39.4c-22.2,0-33.6-16.1-33.6-39.4c0-23,11.4-38.5,33.6-38.5
		C693.7,77.6,705.1,93.1,705.1,116z M645.2,116.2c0,20.1,8.4,33.1,26,33.1c18.1,0,26.6-13.1,26.6-33.1c0-20.2-8.4-32.5-26.6-32.5
		C653.6,83.7,645.2,95.9,645.2,116.2z"/>
	<path class="st9" d="M723.6,154.3V78.7c17.9-1.2,26.2-1.3,29.5-0.9c8.8,1,15.4,4.6,15.1,15.7c-0.2,12-8.7,17.9-19.4,21.1
		c4.5,1.4,7.6,4.4,10.2,8.7l18,31h-8.5l-16.9-29.1c-5-8.4-10.4-8.1-19.2-7.5c-0.6,0-1,0.1-1.6,0.1l0.1,36.5H723.6z M760.6,94.1
		c0-12.7-13.2-11-29.7-9.8v27.6C741.5,111.4,760.6,108.1,760.6,94.1z"/>
	<path class="st9" d="M864.1,154.3l-21.5-31.4c-3.8-5.8-13.1-6.9-20.1-7.4v38.8h-7V78.7h7v34.8l34.9-34.8h9.4l-34.5,32.9
		c4.6,0.7,12.4,1.5,16.2,7.3l24.3,35.3H864.1z"/>
	<path class="st9" d="M940.6,154.4c-8.1,0.3-13.3,1-23.2,1c-24.9,0-34-19.4-34-40.2V78.7h7.4l-0.1,36.2c0,14.7,6.2,34.1,26.4,34.1
		c6.4,0,10.7-0.5,16.1-0.9V78.7h7.4V154.4z"/>
	<path class="st9" d="M963.9,154.3V78.7c17.9-1.2,26.2-1.3,29.5-0.9c8.8,1,15.4,4.6,15.1,15.7c-0.2,12-8.7,17.9-19.4,21.1
		c4.5,1.4,7.6,4.4,10.2,8.7l18,31h-8.5l-16.9-29.1c-5-8.4-10.4-8.1-19.2-7.5c-0.6,0-1,0.1-1.6,0.1l0.1,36.5H963.9z M1000.8,94.1
		c0-12.7-13.2-11-29.7-9.8v27.6C981.8,111.4,1000.8,108.1,1000.8,94.1z"/>
	<path class="st9" d="M1023.8,146.2c11,2,18.6,3.1,22.9,3.1c10.2,0,17.4-4.2,17.7-15.4c0.5-22.5-43.8-14.2-39.4-42
		c1.5-9.5,11.3-14.3,20.1-14.3c3.6,0,9.5,0.2,20.9,1.8l-0.7,6.4c-9-1.3-13.5-2-18.8-2c-7.5,0-13.4,3.6-14.4,9.2
		c-3.8,20.7,39.8,12.7,39.8,39.5c0,15.2-11.2,22.8-22.4,22.9c-4,0-8.5,0-26.3-2.9L1023.8,146.2z"/>
	<path class="st9" d="M1152,116c0,23.3-11.4,39.4-33.7,39.4c-22.2,0-33.6-16.1-33.6-39.4c0-23,11.4-38.5,33.6-38.5
		C1140.6,77.6,1152,93.1,1152,116z M1092,116.2c0,20.1,8.4,33.1,26,33.1c18.1,0,26.6-13.1,26.6-33.1c0-20.2-8.4-32.5-26.6-32.5
		C1100.5,83.7,1092,95.9,1092,116.2z M1115.1,73.1c3.8-5.9,6.8-11.3,9.1-17.2h7.6c-3.1,5.9-6.6,11.3-11,17.2H1115.1z"/>
	<path class="st9" d="M1266.1,78.7l-24.6,75.5h-7.3l-20.8-65.5h-0.5l-21.9,65.5h-7.6l-24.1-75.5h7.4l20.6,65.3h0.5l21.9-65.3h8
		l20.4,65.1h0.5l20.3-65.1H1266.1z"/>
</g>
</svg>
